<?xml version="1.0" encoding="UTF-8" standalone="no"?>
<svg
   xmlns:dc="http://purl.org/dc/elements/1.1/"
   xmlns:cc="http://creativecommons.org/ns#"
   xmlns:rdf="http://www.w3.org/1999/02/22-rdf-syntax-ns#"
   xmlns:svg="http://www.w3.org/2000/svg"
   xmlns="http://www.w3.org/2000/svg"
   xmlns:sodipodi="http://sodipodi.sourceforge.net/DTD/sodipodi-0.dtd"
   xmlns:inkscape="http://www.inkscape.org/namespaces/inkscape"
   version="1.1"
   id="svg2"
   viewBox="0 0 240 60.000001"
   height="60"
   width="240"
   inkscape:version="0.91 r13725"
   sodipodi:docname="success.svg">
  <sodipodi:namedview
     pagecolor="#ffffff"
     bordercolor="#666666"
     borderopacity="1"
     objecttolerance="10"
     gridtolerance="10"
     guidetolerance="10"
     inkscape:pageopacity="0"
     inkscape:pageshadow="2"
     inkscape:window-width="1280"
     inkscape:window-height="679"
     id="namedview13"
     showgrid="false"
     inkscape:zoom="4.1333332"
     inkscape:cx="120.32314"
     inkscape:cy="18.346722"
     inkscape:window-x="0"
     inkscape:window-y="1"
     inkscape:window-maximized="1"
     inkscape:current-layer="svg2" />
  <defs
     id="defs4" />
  <metadata
     id="metadata7">
    <rdf:RDF>
      <cc:Work
         rdf:about="">
        <dc:format>image/svg+xml</dc:format>
        <dc:type
           rdf:resource="http://purl.org/dc/dcmitype/StillImage" />
        <dc:title></dc:title>
      </cc:Work>
    </rdf:RDF>
  </metadata>
  <rect
     style="fill:#333333"
     id="rect4174"
     width="175.7733"
     height="35.860416"
     x="10.824432"
     y="17.306625"
     ry="5.5558391" />
  <g
     style="font-style:normal;font-weight:normal;font-size:40px;line-height:125%;font-family:sans-serif;letter-spacing:0px;word-spacing:0px;fill:#ffffff;fill-opacity:1;stroke:none;stroke-width:1px;stroke-linecap:butt;stroke-linejoin:miter;stroke-opacity:1"
     id="text4176"
     transform="translate(-16.693547,-980.2654)">
    <path
       style="font-style:normal;font-variant:normal;font-weight:normal;font-stretch:normal;font-size:22.5px;font-family:Montserrat;-inkscape-font-specification:Montserrat;fill:#ffffff"
       d="M 54.507812 26.365234 C 53.652812 26.365234 53 27.017969 53 27.917969 C 53 28.795469 53.652813 29.447266 54.507812 29.447266 C 55.362813 29.447266 56.013672 28.795469 56.013672 27.917969 C 56.013672 27.017969 55.362812 26.365234 54.507812 26.365234 z M 59.708984 26.613281 L 59.708984 43.306641 L 62.296875 43.306641 L 62.296875 26.613281 L 59.708984 26.613281 z M 75.052734 26.613281 L 75.052734 33.408203 C 74.175234 32.013203 72.733828 31.224609 70.798828 31.224609 C 67.423828 31.224609 65.107422 33.677344 65.107422 37.277344 C 65.107422 40.922344 67.403203 43.419922 70.845703 43.419922 C 72.758203 43.419922 74.197734 42.654766 75.052734 41.259766 L 75.052734 43.306641 L 77.640625 43.306641 L 77.640625 26.613281 L 75.052734 26.613281 z M 22.751953 27.556641 L 22.751953 43.306641 L 29.75 43.306641 C 33.305 43.306641 35.486328 41.688281 35.486328 38.988281 C 35.486328 36.873281 34.226328 35.365859 32.111328 35.005859 C 33.821328 34.578359 34.878906 33.249141 34.878906 31.494141 C 34.878906 29.041641 32.854297 27.556641 29.591797 27.556641 L 22.751953 27.556641 z M 99.400391 28.501953 L 99.400391 31.787109 L 97.712891 31.787109 L 97.712891 33.722656 L 99.400391 33.722656 L 99.400391 39.931641 C 99.400391 42.384141 100.95195 43.419922 102.75195 43.419922 C 103.76445 43.419922 104.75422 43.105469 105.69922 42.542969 L 105.04688 40.5625 C 104.34937 40.9 103.78805 41.080078 103.24805 41.080078 C 102.43805 41.080078 101.96484 40.696484 101.96484 39.458984 L 101.96484 33.722656 L 105.49805 33.722656 L 105.49805 31.787109 L 101.96484 31.787109 L 101.96484 28.501953 L 99.400391 28.501953 z M 121.72461 28.501953 L 121.72461 31.787109 L 120.03711 31.787109 L 120.03711 33.722656 L 121.72461 33.722656 L 121.72461 39.931641 C 121.72461 42.384141 123.27617 43.419922 125.07617 43.419922 C 126.08867 43.419922 127.07844 43.105469 128.02344 42.542969 L 127.37109 40.5625 C 126.67359 40.9 126.11227 41.080078 125.57227 41.080078 C 124.76227 41.080078 124.28906 40.696484 124.28906 39.458984 L 124.28906 33.722656 L 127.82227 33.722656 L 127.82227 31.787109 L 124.28906 31.787109 L 124.28906 28.501953 L 121.72461 28.501953 z M 25.40625 29.943359 L 29.457031 29.943359 C 31.144531 29.920359 32.15625 30.661797 32.15625 31.966797 C 32.15625 33.316797 31.144531 34.082031 29.457031 34.082031 L 25.40625 34.082031 L 25.40625 29.943359 z M 91.914062 31.224609 C 89.619062 31.224609 87.503906 32.259453 87.503906 34.689453 C 87.481406 39.009453 93.78125 37.637344 93.78125 40.089844 C 93.78125 40.989844 92.926719 41.373047 91.824219 41.373047 C 90.519219 41.373047 88.853359 40.809219 87.818359 39.886719 L 86.896484 41.732422 C 88.088984 42.812422 89.955938 43.396484 91.710938 43.396484 C 94.118437 43.396484 96.302734 42.294297 96.302734 39.841797 C 96.325234 35.499297 89.957031 36.693281 89.957031 34.488281 C 89.957031 33.633281 90.698438 33.294922 91.710938 33.294922 C 92.768438 33.294922 94.096797 33.699062 95.154297 34.351562 L 96.099609 32.439453 C 95.019609 31.674453 93.421563 31.224609 91.914062 31.224609 z M 148.69141 31.224609 C 146.39641 31.224609 144.28125 32.259453 144.28125 34.689453 C 144.25875 39.009453 150.55859 37.637344 150.55859 40.089844 C 150.55859 40.989844 149.70406 41.373047 148.60156 41.373047 C 147.29656 41.373047 145.6307 40.809219 144.5957 39.886719 L 143.67383 41.732422 C 144.86633 42.812422 146.73328 43.396484 148.48828 43.396484 C 150.89578 43.396484 153.08008 42.294297 153.08008 39.841797 C 153.10258 35.499297 146.73438 36.693281 146.73438 34.488281 C 146.73438 33.633281 147.47578 33.294922 148.48828 33.294922 C 149.54578 33.294922 150.87414 33.699062 151.93164 34.351562 L 152.87695 32.439453 C 151.79695 31.674453 150.19891 31.224609 148.69141 31.224609 z M 112.92773 31.248047 C 110.65523 31.248047 109.44039 31.765859 107.77539 32.755859 L 108.83398 34.554688 C 110.02648 33.744688 111.21773 33.339844 112.36523 33.339844 C 114.25523 33.339844 115.22266 34.240547 115.22266 35.748047 L 115.22266 36.107422 L 111.60156 36.107422 C 108.72156 36.130422 107.07812 37.524531 107.07812 39.707031 C 107.07812 41.822031 108.69766 43.419922 111.28516 43.419922 C 113.01766 43.419922 114.39109 42.903203 115.24609 41.845703 L 115.24609 43.306641 L 117.78906 43.306641 L 117.76562 35.455078 C 117.74312 32.822578 116.01023 31.248047 112.92773 31.248047 z M 38.121094 31.337891 L 38.121094 38.785156 C 38.121094 41.642656 39.762812 43.396484 42.507812 43.396484 C 44.465312 43.374484 45.973203 42.631797 46.783203 40.966797 L 46.783203 43.306641 L 49.371094 43.306641 L 49.371094 31.337891 L 46.783203 31.337891 L 46.783203 37.232422 C 46.783203 39.324922 45.568047 40.921797 43.498047 40.966797 C 41.765547 40.966797 40.707031 39.864453 40.707031 38.064453 L 40.707031 31.337891 L 38.121094 31.337891 z M 53.224609 31.337891 L 53.224609 43.306641 L 55.789062 43.306641 L 55.789062 31.337891 L 53.224609 31.337891 z M 130.00977 31.337891 L 130.00977 38.785156 C 130.00977 41.642656 131.65148 43.396484 134.39648 43.396484 C 136.35398 43.374484 137.86188 42.631797 138.67188 40.966797 L 138.67188 43.306641 L 141.25977 43.306641 L 141.25977 31.337891 L 138.67188 31.337891 L 138.67188 37.232422 C 138.67188 39.324922 137.45672 40.921797 135.38672 40.966797 C 133.65422 40.966797 132.59766 39.864453 132.59766 38.064453 L 132.59766 31.337891 L 130.00977 31.337891 z M 71.384766 33.429688 C 73.544766 33.429688 75.052734 35.049688 75.052734 37.367188 C 75.052734 39.639688 73.544766 41.259766 71.384766 41.259766 C 69.202266 41.259766 67.717813 39.639688 67.695312 37.367188 C 67.717812 35.072188 69.224766 33.429688 71.384766 33.429688 z M 156.24414 33.857422 C 155.43414 33.857422 154.82812 34.465312 154.82812 35.320312 C 154.82812 36.197813 155.43414 36.828125 156.24414 36.828125 C 157.05414 36.828125 157.66211 36.197813 157.66211 35.320312 C 157.66211 34.465312 157.05414 33.857422 156.24414 33.857422 z M 25.40625 36.421875 L 29.457031 36.421875 C 31.527031 36.398875 32.763672 37.255391 32.763672 38.650391 C 32.763672 40.112891 31.527031 40.944375 29.457031 40.921875 L 25.40625 40.921875 L 25.40625 36.421875 z M 111.98242 37.998047 L 115.22266 37.998047 L 115.22266 39.099609 C 115.08766 40.404609 113.67117 41.373047 111.82617 41.373047 C 110.38617 41.373047 109.50781 40.675703 109.50781 39.595703 C 109.50781 38.448203 110.29492 37.998047 111.98242 37.998047 z M 156.24414 40.539062 C 155.43414 40.539062 154.82812 41.146953 154.82812 42.001953 C 154.82812 42.879453 155.43414 43.509766 156.24414 43.509766 C 157.05414 43.509766 157.66211 42.879453 157.66211 42.001953 C 157.66211 41.146953 157.05414 40.539062 156.24414 40.539062 z "
       transform="translate(16.693547,980.2654)"
       id="path3568" />
  </g>
  <g
     transform="matrix(0.56940823,0,0,0.55566923,165.68385,-9.99162)"
     id="g3660">
    <path
       inkscape:connector-curvature="0"
       style="fill:#d65a8c"
       d="m 107.83,75.05 c 0,10.46 -19.58,18.93 -43.74,18.93 -24.15,0 -43.74,-8.47 -43.74,-18.93 0,-10.46 19.58,-18.94 43.74,-18.94 24.16,0.01 43.74,8.49 43.74,18.94 z"
       id="path3662" />
    <rect
       style="fill:#2f2f2f"
       x="36.689999"
       y="92.370003"
       width="58.740002"
       height="19.200001"
       id="rect3664" />
    <path
       inkscape:connector-curvature="0"
       style="fill:#f79329"
       d="m 125.09,94.34 -9.95,-1.8 c 0.43,-1.68 0.74,-3.4 0.94,-5.14 l 9.15,-1.36 c 1.17,-0.17 1.97,-1.26 1.8,-2.43 -0.17,-1.16 -1.27,-1.96 -2.42,-1.79 l -8.23,1.22 c 0.03,-1.71 0,-3.41 -0.12,-5.13 -0.25,-3.72 -1.08,-7.47 -2.41,-11.11 2.94,-8.31 12.13,-36.37 5.13,-43.87 C 113.64,17.21 94.92,29.46 88.74,33.99 86.52,35.62 84.6,37 82.95,38.18 76.79,36.32 70.11,35.35 63.49,35.36 56.76,35.35 49.97,36.36 43.72,38.28 41.8,37.16 39.5,35.79 36.78,34.13 30.24,30.16 10.53,19.56 5.71,25.72 c -5.72,7.31 3.2,30.22 7.65,40.47 -1.46,3.83 -2.37,7.79 -2.63,11.71 -0.11,1.66 -0.15,3.32 -0.12,4.97 L 3.41,81.8 c -1.15,-0.17 -2.25,0.63 -2.43,1.79 -0.17,1.17 0.63,2.25 1.8,2.43 l 8.1,1.21 c 0.21,1.85 0.53,3.68 1,5.47 L 2.9,94.32 c -1.16,0.21 -1.93,1.32 -1.72,2.48 0.19,1.03 1.08,1.75 2.1,1.75 0.12,0 0.25,-0.01 0.38,-0.03 l 9.58,-1.72 c 0.78,1.9 1.76,3.73 2.96,5.48 l -9.57,3.04 c -1.12,0.36 -1.75,1.56 -1.39,2.68 0.29,0.91 1.13,1.49 2.03,1.49 0.21,0 0.43,-0.03 0.65,-0.1 l 11.15,-3.54 c 1.23,1.3 2.6,2.55 4.16,3.72 6.05,4.51 13.57,7.57 21.33,9.23 2.95,0.63 10.56,2.1 18.55,2.1 7.99,0 16.35,-1.47 19.3,-2.1 7.75,-1.66 15.28,-4.71 21.33,-9.23 1.67,-1.24 3.11,-2.58 4.4,-3.98 0.02,0.01 0.04,0.03 0.06,0.03 l 11.87,3.77 c 0.21,0.07 0.43,0.1 0.65,0.1 0.9,0 1.75,-0.58 2.03,-1.49 0.35,-1.12 -0.27,-2.32 -1.39,-2.68 l -10.41,-3.31 c 1.15,-1.72 2.09,-3.53 2.84,-5.39 l 10.53,1.9 c 0.13,0.03 0.25,0.03 0.38,0.03 1.01,0 1.91,-0.72 2.1,-1.75 0.22,-1.14 -0.55,-2.25 -1.71,-2.46 z M 27.39,75.17 c -0.75,-3.78 1.71,-7.45 5.5,-8.2 3.73,-0.74 7.34,1.65 8.17,5.34 -0.64,-3.73 1.79,-7.3 5.52,-8.05 3.78,-0.75 7.47,1.72 8.21,5.5 1.8,9.06 -10.38,19.48 -10.38,19.48 0,0 -15.23,-5 -17.02,-14.07 z m 58.86,23.64 c -0.72,3.06 -4.09,9.02 -11.75,9.69 -0.63,0.05 -1.23,0.08 -1.81,0.08 -4.44,0 -7.39,-1.51 -9.2,-2.88 -1.81,1.37 -4.77,2.88 -9.2,2.88 -0.58,0 -1.18,-0.03 -1.81,-0.08 -7.65,-0.67 -11.03,-6.63 -11.75,-9.69 -0.34,-1.43 0.55,-2.87 1.99,-3.21 1.43,-0.34 2.85,0.55 3.2,1.97 0.14,0.54 1.47,5.12 7.03,5.61 5.95,0.53 8.26,-2.54 8.36,-2.67 0.06,-0.09 0.16,-0.13 0.23,-0.21 0.15,-0.16 0.27,-0.34 0.46,-0.47 1.22,-0.82 2.88,-0.5 3.7,0.72 0.07,0.09 2.38,3.16 8.33,2.63 5.57,-0.49 6.89,-5.09 7.03,-5.62 0.36,-1.42 1.8,-2.29 3.22,-1.94 1.42,0.35 2.3,1.77 1.97,3.19 z M 99.61,75.17 c -1.79,9.06 -17.02,14.07 -17.02,14.07 0,0 -12.18,-10.42 -10.38,-19.48 0.75,-3.78 4.43,-6.25 8.21,-5.5 3.73,0.75 6.16,4.32 5.52,8.05 0.83,-3.69 4.44,-6.08 8.17,-5.34 3.79,0.76 6.24,4.43 5.5,8.2 z"
       id="path3666" />
  </g>
</svg>
